<svg width="300" height="300" viewBox="0 0 300 300" fill="none" xmlns="http://www.w3.org/2000/svg">
<g clip-path="url(#clip0_2451_5)">
<rect width="300" height="300" rx="150" fill="#30322C"/>
<path d="M33.4801 151.594C24.4983 155.921 17.9989 144.5 25.4708 138.56C40.7245 126.433 64.2752 116.916 68.521 115.499C76.0316 112.991 100.285 106.475 115.574 108.981C128.097 111.033 134.602 118.51 138.104 131.039C145.111 156.105 140.605 195.21 145.109 196.212C148.112 196.881 159.088 163.717 166.634 146.079C175.643 125.023 183.657 111.99 200.175 97.4507C215.684 83.7991 236.218 78.3994 250.233 80.4055C261.248 81.9822 259.746 97.3243 250.735 98.4523C234.717 100.458 227.267 100.084 215.693 108.981C194.169 125.524 187.498 148.5 176.646 176.66C169.633 194.857 158.372 222.824 140.103 219.775C128.089 217.769 125.891 202.763 124.585 189.695C123.081 174.654 122.581 171.146 121.081 151.594C120.281 141.168 119.633 134.611 115.574 130.037C107.565 121.013 73.0283 132.544 33.4801 151.594Z" fill="url(#paint0_linear_2451_5)" stroke="url(#paint1_linear_2451_5)" stroke-width="5"/>
</g>
<defs>
<linearGradient id="paint0_linear_2451_5" x1="141" y1="80" x2="141" y2="220" gradientUnits="userSpaceOnUse">
<stop stop-color="#7CC5F3"/>
<stop offset="1" stop-color="#00B591"/>
</linearGradient>
<linearGradient id="paint1_linear_2451_5" x1="140.103" y1="80" x2="140.103" y2="220" gradientUnits="userSpaceOnUse">
<stop stop-color="#7CC5F3"/>
<stop offset="1" stop-color="#00B591"/>
</linearGradient>
<clipPath id="clip0_2451_5">
<rect width="300" height="300" fill="white"/>
</clipPath>
</defs>
</svg>
